<svg width="28" height="28" viewBox="0 0 28 28" fill="none" xmlns="http://www.w3.org/2000/svg">
<path fill-rule="evenodd" clip-rule="evenodd" d="M22.4571 6.33211C22.8476 5.94158 22.8476 5.30842 22.4571 4.91789C22.0666 4.52737 21.4334 4.52737 21.0429 4.91789L19 6.96079L16.9571 4.91789C16.5666 4.52737 15.9334 4.52737 15.5429 4.91789C15.1524 5.30842 15.1524 5.94158 15.5429 6.33211L17.5858 8.375L15.5429 10.4179C15.1524 10.8084 15.1524 11.4416 15.5429 11.8321C15.9334 12.2226 16.5666 12.2226 16.9571 11.8321L19 9.78921L21.0429 11.8321C21.4334 12.2226 22.0666 12.2226 22.4571 11.8321C22.8476 11.4416 22.8476 10.8084 22.4571 10.4179L20.4142 8.375L22.4571 6.33211Z" fill="#2688EB"/>
<path d="M11.9664 5.4458C11.1218 5.54143 9.93951 5.88804 9.05462 6.414C6.63333 7.7893 5 10.3914 5 13.3751C5 17.7933 8.58172 21.3751 13 21.3751C16.0765 21.3751 18.7475 19.6384 20.0859 17.092C20.5107 16.2697 20.7313 15.5335 20.8588 14.896" stroke="#2688EB" stroke-width="2" stroke-linecap="round"/>
<path d="M19 19.375L24 24.375" stroke="#2688EB" stroke-width="2" stroke-linecap="round"/>
</svg>
